<?xml version="1.0" encoding="utf-8"?>
<!-- Generator: Adobe Illustrator 25.2.3, SVG Export Plug-In . SVG Version: 6.00 Build 0)  -->
<svg version="1.1" id="Capa_1" xmlns="http://www.w3.org/2000/svg" xmlns:xlink="http://www.w3.org/1999/xlink" x="0px" y="0px"
	 viewBox="0 0 480 480" style="enable-background:new 0 0 480 480;" xml:space="preserve">
<style type="text/css">
	.st0{fill:#2E343D;}
</style>
<g>
	<g>
		<path class="st0" d="M4.1,250.7l144,160c3.1,3.4,7.4,5.3,11.9,5.3h96c6.3,0,12-3.7,14.6-9.5s1.5-12.5-2.7-17.2L133.5,240
			L267.9,90.7c4.2-4.7,5.3-11.5,2.7-17.2C268,67.7,262.3,64,256,64h-96c-4.5,0-8.8,2-11.9,5.3l-144,160
			C-1.4,235.4-1.4,244.7,4.1,250.7z"/>
	</g>
</g>
<g>
	<g>
		<path class="st0" d="M212.1,250.7l144,160c3.1,3.4,7.4,5.3,11.9,5.3h96c6.3,0,12-3.7,14.6-9.5s1.5-12.5-2.7-17.2L341.5,240
			L475.9,90.7c4.2-4.7,5.3-11.5,2.7-17.2C476,67.7,470.3,64,464,64h-96c-4.5,0-8.8,2-11.9,5.3l-144,160
			C206.6,235.4,206.6,244.7,212.1,250.7z"/>
	</g>
</g>
</svg>
